<?xml version="1.0" encoding="utf-8"?>
<!-- Generator: Adobe Illustrator 15.1.0, SVG Export Plug-In . SVG Version: 6.00 Build 0)  -->
<!DOCTYPE svg PUBLIC "-//W3C//DTD SVG 1.1//EN" "http://www.w3.org/Graphics/SVG/1.1/DTD/svg11.dtd">
<svg version="1.1" id="レイヤー_1" xmlns="http://www.w3.org/2000/svg" xmlns:xlink="http://www.w3.org/1999/xlink" x="0px"
	 y="0px" width="841.89px" height="595.28px" viewBox="0 0 841.89 595.28" enable-background="new 0 0 841.89 595.28"
	 xml:space="preserve">
<g>
	<rect x="429.721" y="85.276" fill-rule="evenodd" clip-rule="evenodd" fill="none" width="408.01" height="408.01"/>
	<g>
		<g>
			<g>
				<g>
					<path fill-rule="evenodd" clip-rule="evenodd" fill="#FF7F26" d="M694.83,160.646c0,28.561,0,57.12,0,85.683
						c48.182,7.612,95.854,22,116.963,56.442c9.891,16.137,10.559,39.895,0,57.121c-22.176,36.182-78.416,53.906-131.923,57.801
						c-11.026,0.803-20.946-0.703-29.921-2.039c0-75.256,0-150.51,0-225.767c-20.182-0.458-27.207,14.551-40.801,24.481
						c-4.361,3.186-9.672,6.383-14.96,9.52c-4.714,2.797-11.876,8.566-15.641,8.84c-5.97,0.436-14.589-7.734-19.72-10.879
						c-7.041-4.316-12.408-7.76-18.361-11.561c-4.615,13.744-10.182,26.537-15.641,39.44c-27.711,7.061-60.252,2.25-76.842-11.559
						c5.715-20.58,17.256-35.334,31.281-47.602c11.01,10.072,20.971,21.191,31.961,31.281c2.2-15.48,3.23-32.131,4.76-48.282
						c7.191-3.917,16.346-5.868,25.16-8.16c12.096,9.893,21.15,22.824,32.642,33.321c8.64-10.628,14.568-23.966,23.12-34.681
						c6.802,2.398,12.619,4.002,19.041,8.16c5.256,3.404,9.801,10.638,15.641,11.561c5.678,0.897,10.539-3.379,18.359-2.72
						c0.451-6.577-0.901-14.956,0.68-20.4C665.364,160.646,680.098,160.646,694.83,160.646z M741.072,373.493
						c17.561-7.998,56.979-24.662,41.48-54.402c-11.502-22.075-54.467-34.411-87.041-37.403
						c-1.586,31.737-0.229,66.417-0.682,99.284C713.252,381.483,725.775,376.103,741.072,373.493z"/>
				</g>
			</g>
			<g>
				<path fill-rule="evenodd" clip-rule="evenodd" fill="#FF7F26" d="M622.973,248.368l-0.224,34
					c-26.411,6.002-57.767,16.309-70.042,36.723c-5.609,9.33-3.339,23.957,2.721,31.961c13.217,17.463,43.036,27.418,67.321,32.641
					c0,9.973,0,19.947,0,29.92c-43.563-8.869-80.14-21.777-100.643-53.041c-13.718-20.92-24.817-43.553-38.761-65.282
					c12.251-7.244,23.529-15.457,36.721-21.762c3.541,5.527,7.093,11.043,10.201,17.002
					C553.756,269.817,585.272,254.87,622.973,248.368z"/>
			</g>
			<g>
				<g>
					<path fill-rule="evenodd" clip-rule="evenodd" fill="#FF7F26" d="M505.646,373.606c3.255,2.502,5.478,6.145,5.97,10.271
						l6.341-10.271H505.646z"/>
					<path fill-rule="evenodd" clip-rule="evenodd" fill="#FF7F26" d="M495.176,370.093c2.25,0,4.395,0.424,6.353,1.191
						l-6.466-10.371l-6.456,10.459C490.621,370.55,492.842,370.093,495.176,370.093z"/>
					<ellipse fill-rule="evenodd" clip-rule="evenodd" fill="#FF7F26" cx="495.176" cy="385.619" rx="13.828" ry="12.808"/>
					<path fill-rule="evenodd" clip-rule="evenodd" fill="#FF7F26" d="M484.706,373.606h-12.312l6.352,10.188
						C479.26,379.702,481.472,376.091,484.706,373.606z"/>
					<path fill-rule="evenodd" clip-rule="evenodd" fill="#FF7F26" d="M505.646,397.634h12.311l-6.351-10.188
						C511.091,391.538,508.879,395.147,505.646,397.634z"/>
					<path fill-rule="evenodd" clip-rule="evenodd" fill="#FF7F26" d="M478.736,387.362l-6.342,10.271h12.313
						C481.451,395.13,479.229,391.489,478.736,387.362z"/>
					<path fill-rule="evenodd" clip-rule="evenodd" fill="#FF7F26" d="M495.176,401.147c-2.25,0-4.396-0.426-6.354-1.193
						l6.467,10.373l6.455-10.459C499.73,400.688,497.51,401.147,495.176,401.147z"/>
				</g>
			</g>
		</g>
	</g>
</g>
</svg>
