<?xml version="1.0" encoding="utf-8"?>
<!-- Generator: Adobe Illustrator 15.1.0, SVG Export Plug-In . SVG Version: 6.00 Build 0)  -->
<!DOCTYPE svg PUBLIC "-//W3C//DTD SVG 1.1//EN" "http://www.w3.org/Graphics/SVG/1.1/DTD/svg11.dtd">
<svg version="1.1" id="レイヤー_1" xmlns="http://www.w3.org/2000/svg" xmlns:xlink="http://www.w3.org/1999/xlink" x="0px"
	 y="0px" width="841.89px" height="595.28px" viewBox="0 0 841.89 595.28" enable-background="new 0 0 841.89 595.28"
	 xml:space="preserve">
<g>
	<rect x="13.391" y="85.276" fill-rule="evenodd" clip-rule="evenodd" fill="#FF7F26" width="408.01" height="408.01"/>
	<g>
		<path fill-rule="evenodd" clip-rule="evenodd" fill="#F0E9B9" d="M278.501,160.646c0,28.561,0,57.12,0,85.683
			c48.18,7.611,95.853,22,116.963,56.442c9.891,16.137,10.559,39.895,0,57.121c-22.176,36.182-78.417,53.906-131.923,57.801
			c-11.026,0.803-20.946-0.703-29.92-2.039c0-75.256,0-150.511,0-225.767c-20.183-0.458-27.208,14.551-40.801,24.481
			c-4.361,3.186-9.671,6.383-14.96,9.52c-4.714,2.797-11.876,8.566-15.641,8.84c-5.97,0.436-14.588-7.734-19.72-10.879
			c-7.041-4.316-12.408-7.76-18.36-11.561c-4.616,13.744-10.183,26.537-15.641,39.439c-27.712,7.061-60.253,2.25-76.842-11.559
			c5.714-20.58,17.255-35.334,31.281-47.602c11.009,10.072,20.97,21.191,31.961,31.281c2.2-15.48,3.23-32.131,4.76-48.282
			c7.191-3.917,16.346-5.868,25.161-8.16c12.095,9.893,21.15,22.824,32.641,33.321c8.64-10.628,14.568-23.966,23.12-34.681
			c6.802,2.398,12.619,4.002,19.041,8.16c5.257,3.404,9.802,10.638,15.641,11.561c5.678,0.897,10.54-3.379,18.36-2.72
			c0.45-6.577-0.902-14.956,0.68-20.4C249.035,160.646,263.768,160.646,278.501,160.646z M324.742,373.493
			c17.561-7.998,56.979-24.662,41.481-54.402c-11.502-22.075-54.468-34.411-87.042-37.403c-1.586,31.737-0.227,66.417-0.68,99.284
			C296.921,381.483,309.446,376.103,324.742,373.493z"/>
		<path fill-rule="evenodd" clip-rule="evenodd" fill="#F0E9B9" d="M206.643,248.367l-0.224,34
			c-26.412,6.002-57.767,16.309-70.042,36.723c-5.61,9.33-3.339,23.957,2.72,31.961c13.218,17.463,43.037,27.418,67.322,32.641
			c0,9.973,0,19.947,0,29.92c-43.563-8.869-80.14-21.777-100.643-53.041c-13.718-20.92-24.817-43.553-38.761-65.282
			c12.251-7.244,23.53-15.457,36.721-21.762c3.541,5.527,7.093,11.043,10.201,17.002
			C137.426,269.817,168.943,254.869,206.643,248.367z"/>
		<g>
			<g>
				<path fill-rule="evenodd" clip-rule="evenodd" fill="#116B14" d="M89.316,373.606c3.255,2.502,5.478,6.145,5.97,10.271
					l6.34-10.271H89.316z"/>
				<path fill-rule="evenodd" clip-rule="evenodd" fill="#116B14" d="M78.846,370.093c2.25,0,4.395,0.424,6.353,1.191l-6.465-10.371
					l-6.457,10.459C74.292,370.55,76.513,370.093,78.846,370.093z"/>
				<ellipse fill-rule="evenodd" clip-rule="evenodd" fill="#116B14" cx="78.846" cy="385.619" rx="13.828" ry="12.808"/>
				<path fill-rule="evenodd" clip-rule="evenodd" fill="#116B14" d="M68.376,373.606H56.065l6.352,10.188
					C62.931,379.702,65.142,376.091,68.376,373.606z"/>
				<path fill-rule="evenodd" clip-rule="evenodd" fill="#116B14" d="M89.316,397.634h12.311l-6.351-10.188
					C94.761,391.538,92.549,395.147,89.316,397.634z"/>
				<path fill-rule="evenodd" clip-rule="evenodd" fill="#116B14" d="M62.406,387.362l-6.341,10.271h12.312
					C65.121,395.13,62.899,391.489,62.406,387.362z"/>
				<path fill-rule="evenodd" clip-rule="evenodd" fill="#116B14" d="M78.846,401.147c-2.25,0-4.396-0.426-6.354-1.193l6.467,10.373
					l6.456-10.459C83.4,400.688,81.18,401.147,78.846,401.147z"/>
			</g>
		</g>
	</g>
</g>
</svg>
